<?xml version="1.0" standalone="no"?><!DOCTYPE svg PUBLIC "-//W3C//DTD SVG 1.1//EN" "http://www.w3.org/Graphics/SVG/1.1/DTD/svg11.dtd"><svg t="1620571709877" class="icon" viewBox="0 0 1024 1024" version="1.1" xmlns="http://www.w3.org/2000/svg" p-id="1629" xmlns:xlink="http://www.w3.org/1999/xlink" width="200" height="200"><defs><style type="text/css"></style></defs><path d="M109.714286 950.857143h164.571428v-164.571429H109.714286V950.857143z m201.142857 0h182.857143v-164.571429h-182.857143V950.857143zM109.714286 749.714286h164.571428v-182.857143H109.714286v182.857143z m201.142857 0h182.857143v-182.857143h-182.857143v182.857143z m-201.142857-219.428572h164.571428V365.714286H109.714286v164.571428zM530.285714 950.857143h182.857143v-164.571429h-182.857143V950.857143z m-219.428571-420.571429h182.857143V365.714286h-182.857143v164.571428z m438.857143 420.571429H914.285714v-164.571429h-164.571428V950.857143z m-219.428572-201.142857h182.857143v-182.857143h-182.857143v182.857143zM329.142857 256V91.428571c0-9.728-8.557714-18.285714-18.285714-18.285714h-36.571429c-9.728 0-18.285714 8.557714-18.285714 18.285714V256c0 9.728 8.557714 18.285714 18.285714 18.285714h36.571429c9.728 0 18.285714-8.557714 18.285714-18.285714z m420.571429 493.714286H914.285714v-182.857143h-164.571428v182.857143z m-219.428572-219.428572h182.857143V365.714286h-182.857143v164.571428z m219.428572 0H914.285714V365.714286h-164.571428v164.571428zM768 256V91.428571c0-9.728-8.557714-18.285714-18.285714-18.285714h-36.571429c-9.728 0-18.285714 8.557714-18.285714 18.285714V256c0 9.728 8.557714 18.285714 18.285714 18.285714h36.571429c9.728 0 18.285714-8.557714 18.285714-18.285714z m219.428571-36.571429v731.428572c0 40.009143-33.133714 73.142857-73.142857 73.142857H109.714286c-40.009143 0-73.142857-33.133714-73.142857-73.142857V219.428571c0-40.009143 33.133714-73.142857 73.142857-73.142857h73.142857V91.428571C182.857143 41.142857 224 0 274.285714 0h36.571429C361.142857 0 402.285714 41.142857 402.285714 91.428571V146.285714h219.428572V91.428571C621.714286 41.142857 662.857143 0 713.142857 0h36.571429C800 0 841.142857 41.142857 841.142857 91.428571V146.285714h73.142857c40.009143 0 73.142857 33.133714 73.142857 73.142857z" fill="#BFBFBF" p-id="1630"></path></svg>