<?xml version="1.0" standalone="no"?><!DOCTYPE svg PUBLIC "-//W3C//DTD SVG 1.1//EN" "http://www.w3.org/Graphics/SVG/1.1/DTD/svg11.dtd"><svg t="1620742257696" class="icon" viewBox="0 0 1024 1024" version="1.1" xmlns="http://www.w3.org/2000/svg" p-id="3456" xmlns:xlink="http://www.w3.org/1999/xlink" width="200" height="200"><defs><style type="text/css"></style></defs><path d="M903.542857 256.8c6.857143 6.857143 10.742857 16.114286 10.742857 25.828571V987.428571c0 20.228571-16.342857 36.571429-36.571428 36.571429H146.285714c-20.228571 0-36.571429-16.342857-36.571428-36.571429V36.571429c0-20.228571 16.342857-36.571429 36.571428-36.571429h485.371429c9.714286 0 19.085714 3.885714 25.942857 10.742857l245.942857 246.057143zM829.942857 299.428571L614.857143 84.342857V299.428571h215.085714zM584.388571 472.96l-69.965714 116.914286L443.771429 472.914286a13.714286 13.714286 0 0 0-11.737143-6.617143h-43.931429a13.714286 13.714286 0 0 0-7.314286 2.114286 13.714286 13.714286 0 0 0-4.285714 18.925714l94.102857 149.051428-95.371428 151.748572a13.714286 13.714286 0 0 0-2.102857 7.302857 13.714286 13.714286 0 0 0 13.714285 13.714286h39.382857a13.714286 13.714286 0 0 0 11.668572-6.514286l71.657143-115.965714 71.2 115.942857a13.714286 13.714286 0 0 0 11.691428 6.537143h42.834286a13.714286 13.714286 0 0 0 7.405714-2.171429 13.714286 13.714286 0 0 0 4.137143-18.948571l-95.805714-149.2 97.485714-151.394286a13.714286 13.714286 0 0 0 2.171429-7.428571 13.714286 13.714286 0 0 0-13.714286-13.714286h-40.8a13.714286 13.714286 0 0 0-11.76 6.674286z" p-id="3457" fill="#4FAC31"></path></svg>