<?xml version="1.0" standalone="no"?><!DOCTYPE svg PUBLIC "-//W3C//DTD SVG 1.1//EN" "http://www.w3.org/Graphics/SVG/1.1/DTD/svg11.dtd"><svg t="1620658566312" class="icon" viewBox="0 0 1024 1024" version="1.1" xmlns="http://www.w3.org/2000/svg" p-id="21503" xmlns:xlink="http://www.w3.org/1999/xlink" width="200" height="200"><defs><style type="text/css"></style></defs><path d="M934.4 896H89.6c-26.581333 0-46.933333-20.565333-46.933333-47.402667V210.176C42.666667 140.629333 97.408 85.333333 166.272 85.333333h203.349333c37.546667 0 73.557333 17.365333 97.024 48.981334L535.466667 224.426667h323.84c67.285333 0 123.605333 55.338667 123.605333 124.842666v500.906667A48.384 48.384 0 0 1 934.4 896zM136.533333 801.194667h750.933334V347.648a29.866667 29.866667 0 0 0-29.738667-30.037333H512c-14.08 0-28.16-6.314667-37.546667-18.944L391.552 189.610667c-6.272-4.693333-14.08-9.472-23.466667-9.472H164.693333c-15.658667 0-28.16 12.672-28.16 30.037333v591.018667z" p-id="21504" fill="#ffffff"></path></svg>