<?xml version="1.0" standalone="no"?><!DOCTYPE svg PUBLIC "-//W3C//DTD SVG 1.1//EN" "http://www.w3.org/Graphics/SVG/1.1/DTD/svg11.dtd"><svg t="1620575398098" class="icon" viewBox="0 0 1024 1024" version="1.1" xmlns="http://www.w3.org/2000/svg" p-id="9718" width="200" height="200" xmlns:xlink="http://www.w3.org/1999/xlink"><defs><style type="text/css"></style></defs><path d="M921.6 83.2h-166.4V128c0 42.368-34.432 76.8-76.8 76.8H345.6c-42.368 0-76.8-34.432-76.8-76.8v-44.8H102.4a25.6 25.6 0 0 0-25.6 25.6v870.4a25.6 25.6 0 0 0 25.6 25.6h819.2a25.6 25.6 0 0 0 25.6-25.6V108.8a25.6 25.6 0 0 0-25.6-25.6zM254.912 356.16h192a25.6 25.6 0 1 1 0 51.2h-192a25.6 25.6 0 1 1 0-51.2z m371.2 409.6h-371.2a25.6 25.6 0 1 1 0-51.2h371.2a25.6 25.6 0 1 1 0 51.2z m132.8-179.2H254.912a25.6 25.6 0 1 1 0-51.2h504a25.6 25.6 0 1 1 0 51.2z" p-id="9719" fill="#C7D6EE"></path><path d="M345.6 153.6h332.8A25.6 25.6 0 0 0 704 128V51.2a25.6 25.6 0 0 0-25.6-25.6H345.6a25.6 25.6 0 0 0-25.6 25.6V128a25.6 25.6 0 0 0 25.6 25.6z" p-id="9720" fill="#C7D6EE"></path></svg>